<svg width="12" height="9" viewBox="0 0 12 9" fill="none" xmlns="http://www.w3.org/2000/svg">
<path d="M1.78981 0.000173569L10.2098 0.000173569C10.5422 -0.000308037 10.868 0.093359 11.1494 0.270332C11.4308 0.447306 11.6563 0.700349 11.7998 1.00017C11.9678 1.35592 12.0326 1.75171 11.9866 2.14244C11.9406 2.53318 11.7858 2.90314 11.5398 3.21017L7.32981 8.31017C7.16459 8.5008 6.96033 8.65369 6.73086 8.75847C6.50139 8.86325 6.25207 8.91748 5.99981 8.91748C5.74755 8.91748 5.49823 8.86325 5.26876 8.75847C5.03929 8.65369 4.83503 8.5008 4.66981 8.31017L0.459807 3.21017C0.213801 2.90314 0.0589933 2.53318 0.0130243 2.14244C-0.0329447 1.75171 0.0317764 1.35592 0.199809 1.00017C0.34335 0.700349 0.568868 0.447306 0.850255 0.270332C1.13164 0.093359 1.4574 -0.000308037 1.78981 0.000173569Z" fill="white"/>
</svg>
